<?xml version="1.0" standalone="no"?>
<!DOCTYPE svg PUBLIC "-//W3C//DTD SVG 20010904//EN"
 "http://www.w3.org/TR/2001/REC-SVG-20010904/DTD/svg10.dtd">
<svg version="1.0" xmlns="http://www.w3.org/2000/svg"
 width="965.000000pt" height="436.000000pt" viewBox="0 0 965.000000 436.000000"
 preserveAspectRatio="xMidYMid meet">

<g transform="translate(0.000000,436.000000) scale(0.100000,-0.100000)"
fill="#ffffff" stroke="none">
<path d="M2299 2868 c-8 -11 -13 -24 -11 -29 1 -5 -28 -83 -64 -172 -68 -167
-196 -507 -254 -680 -18 -53 -35 -95 -37 -93 -7 7 55 219 107 366 57 162 120
317 189 464 28 60 49 111 47 113 -6 7 -148 -173 -227 -287 -172 -247 -337
-568 -425 -824 -13 -38 -24 -74 -24 -79 0 -5 14 -7 30 -5 17 3 30 2 30 -2 0
-4 30 -12 68 -19 391 -69 902 -64 1242 12 l52 12 -144 190 c-181 240 -562 695
-514 613 9 -15 41 -69 72 -120 142 -233 279 -494 264 -503 -13 -8 -621 -7
-717 1 l-71 7 36 66 c79 147 199 354 281 484 l86 138 145 -148 c191 -196 332
-370 542 -673 25 -37 -17 87 -81 235 -136 315 -327 623 -552 886 -53 64 -57
66 -70 47z m340 -1062 c-8 -7 -354 -84 -474 -105 -143 -25 -372 -51 -435 -50
-25 0 59 16 185 35 212 31 572 93 655 113 38 10 76 13 69 7z"/>
<path d="M3981 2231 c-83 -186 -151 -341 -151 -345 0 -3 33 -6 73 -6 l72 0 22
50 22 50 118 0 119 0 21 -50 21 -50 75 0 75 0 -140 313 c-77 171 -147 327
-154 345 -8 17 -16 32 -18 32 -2 0 -71 -152 -155 -339z m187 -58 c12 -28 22
-56 22 -62 0 -7 -23 -11 -55 -11 -30 0 -55 3 -55 8 0 19 54 132 60 125 4 -4
16 -31 28 -60z"/>
<path d="M5652 2560 c-215 -44 -335 -277 -248 -484 21 -50 106 -137 159 -164
167 -83 367 -21 462 142 29 52 49 145 40 196 l-7 40 -169 0 -169 0 0 -70 0
-70 100 0 100 0 -17 -27 c-60 -97 -142 -131 -246 -102 -84 23 -155 130 -143
216 12 92 83 174 162 189 51 9 118 -4 160 -32 l37 -26 46 46 45 45 -23 25
c-53 57 -196 94 -289 76z"/>
<path d="M6120 2226 l0 -346 70 0 69 0 3 127 3 126 84 -126 84 -127 83 0 83 0
-76 117 c-41 64 -72 118 -67 120 35 12 77 49 101 90 23 39 28 60 28 113 0 36
-3 77 -8 92 -11 42 -64 96 -121 125 -46 23 -65 26 -193 31 l-143 5 0 -347z
m268 193 c65 -22 77 -117 20 -164 -24 -20 -40 -25 -89 -25 l-59 0 0 100 0 100
49 0 c26 0 62 -5 79 -11z"/>
<path d="M6952 2553 c-9 -17 -244 -540 -283 -630 l-18 -43 74 0 74 0 22 50 21
50 120 0 119 0 21 -50 21 -50 74 0 c56 0 74 3 70 13 -10 26 -299 672 -302 675
-2 2 -8 -5 -13 -15z m63 -432 c6 -20 3 -21 -54 -21 -68 0 -67 -9 -21 95 l22
50 23 -52 c13 -28 26 -61 30 -72z"/>
<path d="M7330 2226 l0 -346 65 0 65 0 0 135 c0 74 3 135 8 135 4 0 49 -59
101 -131 51 -72 97 -127 101 -122 4 4 47 64 96 133 l89 124 3 -137 3 -137 64
0 65 0 0 342 0 343 -51 -70 c-28 -39 -101 -139 -162 -223 -89 -122 -113 -150
-123 -140 -7 7 -83 109 -168 227 l-156 213 0 -346z"/>
<path d="M3380 2220 l0 -340 205 0 205 0 0 65 0 64 -137 3 -138 3 -3 273 -2
272 -65 0 -65 0 0 -340z"/>
<path d="M4370 2495 l0 -65 85 0 85 0 0 -275 0 -275 70 0 70 0 0 275 0 275 85
0 85 0 0 65 0 65 -240 0 -240 0 0 -65z"/>
<path d="M4910 2220 l0 -340 205 0 205 0 0 65 0 65 -135 0 -135 0 0 70 0 70
105 0 105 0 0 70 0 70 -105 0 -105 0 0 70 0 70 135 0 135 0 0 65 0 65 -205 0
-205 0 0 -340z"/>
</g>
</svg>
